<svg width="50" height="50" viewBox="0 0 50 50" fill="none" xmlns="http://www.w3.org/2000/svg">
<path d="M24.9998 2.59805C19.5459 2.59825 14.2699 4.53926 10.1162 8.07344C5.9623 11.6076 3.20156 16.5047 2.32793 21.8883C1.45429 27.2717 2.5248 32.7904 5.34785 37.457C8.1707 42.1232 12.5621 45.633 17.7361 47.358C18.8846 47.559 19.3152 46.8699 19.3152 46.267C19.3152 45.7215 19.2865 43.9127 19.2865 41.9891C13.5156 43.0514 12.0227 40.5824 11.5633 39.2904C11.0535 38.034 10.2455 36.9205 9.20898 36.0461C8.40508 35.6154 7.25664 34.5531 9.18027 34.5244C9.91484 34.6041 10.6191 34.8598 11.234 35.2695C11.8486 35.6793 12.3557 36.2315 12.7117 36.8787C13.0258 37.443 13.4482 37.9398 13.9547 38.3406C14.4611 38.7414 15.0418 39.0385 15.6633 39.2143C16.2848 39.3902 16.9348 39.442 17.5762 39.3664C18.2176 39.2908 18.8379 39.0895 19.4012 38.7736C19.5006 37.6059 20.0211 36.5141 20.8656 35.7016C15.7551 35.1273 10.4148 33.1463 10.4148 24.3607C10.3826 22.0781 11.2248 19.8695 12.7691 18.1881C12.067 16.2041 12.149 14.0268 12.9988 12.1014C12.9988 12.1014 14.9223 11.4984 19.3152 14.4557C23.0734 13.4221 27.041 13.4221 30.7994 14.4557C35.1922 11.4697 37.1158 12.1014 37.1158 12.1014C37.9656 14.0268 38.0478 16.2041 37.3455 18.1881C38.8941 19.8666 39.7375 22.0773 39.6998 24.3607C39.6998 33.175 34.3309 35.1273 29.2203 35.7016C29.7684 36.257 30.1904 36.9242 30.458 37.6572C30.7256 38.3906 30.8322 39.1729 30.7707 39.9508C30.7707 43.0231 30.742 45.4918 30.742 46.267C30.742 46.8699 31.1727 47.5877 32.3211 47.358C37.4859 45.6191 41.8646 42.1012 44.6756 37.4324C47.4867 32.7635 48.5469 27.2475 47.6672 21.8691C46.7875 16.491 44.0252 11.6004 39.873 8.07051C35.7211 4.54044 30.4496 2.60098 24.9998 2.59805Z" fill="#4A44BD"/>
</svg>
