<svg width="50" height="50" viewBox="0 0 50 50" fill="none" xmlns="http://www.w3.org/2000/svg">
<g clip-path="url(#clip0_23_4)">
<path d="M25 0C20.0555 0 15.222 1.46622 11.1108 4.21326C6.99953 6.96029 3.79521 10.8648 1.90302 15.4329C0.0108322 20.0011 -0.484251 25.0277 0.480379 29.8773C1.44501 34.7268 3.82603 39.1814 7.32234 42.6777C10.8187 46.174 15.2732 48.555 20.1228 49.5196C24.9723 50.4843 29.9989 49.9892 34.5671 48.097C39.1353 46.2048 43.0397 43.0005 45.7867 38.8893C48.5338 34.778 50 29.9445 50 25C50 18.3696 47.3661 12.0107 42.6777 7.32233C37.9893 2.63392 31.6304 0 25 0ZM40.625 37.5C40.625 37.7763 40.5153 38.0412 40.3199 38.2366C40.1246 38.4319 39.8596 38.5417 39.5833 38.5417H36.4583C36.1821 38.5417 35.9171 38.4319 35.7218 38.2366C35.5264 38.0412 35.4167 37.7763 35.4167 37.5V26.0417C35.3095 25.2783 35.0053 24.556 34.5341 23.9459C34.0628 23.3358 33.4408 22.859 32.7292 22.5625C32.1353 22.2639 31.475 22.1223 30.8109 22.151C30.1469 22.1797 29.5012 22.3778 28.9353 22.7265C28.3695 23.0752 27.9022 23.5629 27.5781 24.1432C27.2539 24.7234 27.0836 25.377 27.0833 26.0417V37.5C27.0833 37.7763 26.9736 38.0412 26.7782 38.2366C26.5829 38.4319 26.3179 38.5417 26.0417 38.5417H22.9167C22.6404 38.5417 22.3755 38.4319 22.1801 38.2366C21.9848 38.0412 21.875 37.7763 21.875 37.5V18.75C21.875 18.4737 21.9848 18.2088 22.1801 18.0134C22.3755 17.8181 22.6404 17.7083 22.9167 17.7083H26.0417C26.3179 17.7083 26.5829 17.8181 26.7782 18.0134C26.9736 18.2088 27.0833 18.4737 27.0833 18.75C27.0831 18.8437 27.1081 18.9357 27.1558 19.0164C27.2034 19.097 27.272 19.1634 27.3542 19.2083C27.4372 19.2539 27.5303 19.2778 27.625 19.2778C27.7197 19.2778 27.8129 19.2539 27.8958 19.2083C33.9375 14.8958 40.625 18.0625 40.625 25.0417V37.5ZM16.6667 12.5V37.5C16.6667 37.7763 16.5569 38.0412 16.3616 38.2366C16.1662 38.4319 15.9013 38.5417 15.625 38.5417H11.4583C11.1821 38.5417 10.9171 38.4319 10.7218 38.2366C10.5264 38.0412 10.4167 37.7763 10.4167 37.5V12.5C10.4167 12.2237 10.5264 11.9588 10.7218 11.7634C10.9171 11.5681 11.1821 11.4583 11.4583 11.4583H15.625C15.9013 11.4583 16.1662 11.5681 16.3616 11.7634C16.5569 11.9588 16.6667 12.2237 16.6667 12.5Z" fill="#3769E7"/>
</g>
<defs>
<clipPath id="clip0_23_4">
<rect width="50" height="50" fill="white"/>
</clipPath>
</defs>
</svg>
